# xmcd CD database file
#
# Track frame offsets:
#	187
#	12937
#	27450
#	44375
#	64287
#	74212
#	90360
#	101875
#	113190
#	127215
#
# Disc length: 1871 seconds
#
# Revision: 2
# Processed by: cddbd v1.5.1PL0 Copyright (c) Steve Scherf et al.
# Submitted via: CDex 1.51
#
DISCID=95074d0a
DTITLE=George Strait - Livin' It Up
DYEAR=1990
DGENRE=Country
TTITLE0=Someone Had To Teach You
TTITLE1=Heaven Must Be Wondering Where You Are
TTITLE2=I've Come To Expect It From You
TTITLE3=Lonesome Rodeo Cowboy
TTITLE4=When You're A Man On Your Own
TTITLE5=Drinking Champagne
TTITLE6=We're Supposed To Do That Now And Then
TTITLE7=She Loves Me (She Don't Love You)
TTITLE8=Love Without End, Amen
TTITLE9=Stranger In My Arms
EXTD=YEAR: 1990
EXTT0=
EXTT1=
EXTT2=
EXTT3=
EXTT4=
EXTT5=
EXTT6=
EXTT7=
EXTT8=
EXTT9=
PLAYORDER=
